<svg width="21" height="20" viewBox="0 0 21 20" fill="none" xmlns="http://www.w3.org/2000/svg">
<path d="M18.886 8.75H11.3632V1.25C11.3632 0.56 10.8015 0 10.1094 0C9.41734 0 8.85564 0.56 8.85564 1.25V8.75H1.33284C0.640743 8.75 0.0790405 9.31 0.0790405 10C0.0790405 10.69 0.640743 11.25 1.33284 11.25H8.85564V18.75C8.85564 19.44 9.41734 20 10.1094 20C10.8015 20 11.3632 19.44 11.3632 18.75V11.25H18.886C19.5781 11.25 20.1398 10.69 20.1398 10C20.1398 9.31 19.5781 8.75 18.886 8.75Z" fill="#ACD9CF"/>
</svg>
