<svg width="19" height="17" viewBox="0 0 19 17" fill="none" xmlns="http://www.w3.org/2000/svg">
<path d="M15.126 7.48805C13.8484 7.50895 12.5872 8.53368 12.6081 9.81128L12.6305 11.1801C12.083 11.1891 11.5444 11.7456 11.5533 12.2932L11.6056 15.4872C11.616 16.126 12.1725 16.6645 12.7201 16.6556L17.7392 16.5735C18.378 16.563 18.9166 16.0065 18.9077 15.459L18.8554 12.265C18.845 11.6262 18.2885 11.0876 17.7409 11.0965L17.7185 9.72768C17.6976 8.45007 16.4036 7.46714 15.126 7.48805ZM15.1439 8.58313C15.874 8.57119 16.5202 9.01703 16.5322 9.74709L16.5546 11.1159L13.8168 11.1607L13.7945 9.79188C13.7825 9.06182 14.4138 8.59508 15.1439 8.58313ZM5.42452 0.344216C2.6868 0.389006 0.44269 2.70777 0.487479 5.44549C0.532269 8.18321 2.85103 10.4273 5.58875 10.3825L10.7904 10.2974L10.783 9.84114C10.7785 9.56737 10.7725 9.20234 10.8593 8.92708L5.56636 9.01367C3.55869 9.04652 1.88919 7.43076 1.85634 5.42309C1.82349 3.41543 3.43925 1.74592 5.44692 1.71308L15.0289 1.55631C16.3066 1.53541 17.3268 2.52282 17.3477 3.80042C17.3611 4.62174 16.9168 5.35927 16.1942 5.8275C16.7432 5.9098 17.204 6.1761 17.6648 6.44241C18.3829 5.70041 18.733 4.78186 18.7166 3.77803C18.6837 1.77037 17.0142 0.154607 15.0066 0.187453L5.42452 0.344216ZM7.29446 3.05208C6.01686 3.07298 5.02945 4.09324 5.05035 5.37084C5.07125 6.64844 6.09151 7.63585 7.36911 7.61495L11.4757 7.54777C11.9215 6.9015 12.4616 6.43625 13.0959 6.15203L7.34672 6.24609C6.79917 6.25505 6.42817 5.89599 6.41921 5.34844C6.41025 4.8009 6.76931 4.4299 7.31686 4.42094L14.1612 4.30897L14.1388 2.94011L7.29446 3.05208Z" fill="#ADA2B9"/>
</svg>
